<svg width="24" height="24" viewBox="0 0 24 24" fill="none" xmlns="http://www.w3.org/2000/svg">
<path fill-rule="evenodd" clip-rule="evenodd" d="M9.60327 15.1367C9.41127 15.1367 9.21927 15.0637 9.07327 14.9167C8.78027 14.6237 8.78027 14.1497 9.07327 13.8567L13.8653 9.06469C14.1583 8.77169 14.6323 8.77169 14.9253 9.06469C15.2183 9.35769 15.2183 9.83169 14.9253 10.1247L10.1333 14.9167C9.98727 15.0637 9.79527 15.1367 9.60327 15.1367" fill="#FF2A3A"/>
<path fill-rule="evenodd" clip-rule="evenodd" d="M14.3973 15.1396C14.2053 15.1396 14.0133 15.0666 13.8673 14.9196L9.07131 10.1226C8.77831 9.82961 8.77831 9.35562 9.07131 9.06261C9.36531 8.76961 9.83931 8.76961 10.1313 9.06261L14.9273 13.8596C15.2203 14.1526 15.2203 14.6266 14.9273 14.9196C14.7813 15.0666 14.5883 15.1396 14.3973 15.1396" fill="#FF2A3A"/>
<path fill-rule="evenodd" clip-rule="evenodd" d="M7.665 3.5C5.135 3.5 3.5 5.233 3.5 7.916V16.084C3.5 18.767 5.135 20.5 7.665 20.5H16.333C18.864 20.5 20.5 18.767 20.5 16.084V7.916C20.5 5.233 18.864 3.5 16.334 3.5H7.665ZM16.333 22H7.665C4.276 22 2 19.622 2 16.084V7.916C2 4.378 4.276 2 7.665 2H16.334C19.723 2 22 4.378 22 7.916V16.084C22 19.622 19.723 22 16.333 22V22Z" fill="#FF2A3A"/>
</svg>
