<svg width="274" height="393" viewBox="0 0 274 393" fill="none" xmlns="http://www.w3.org/2000/svg">
<g clip-path="url(#clip0)">
<path d="M68.5003 133.5C68.5003 133.5 47.5003 89.3 90.5003 82.4C133.5 75.5 201.6 164.4 230.8 128.3C260 92.2 241.9 45.2 223.9 53.4C205.8 61.6 218.3 99.9 210 111.9C195.6 132.9 112.8 52.2 73.3003 81.9C33.8003 111.6 87.7003 168.4 87.7003 168.4L68.5003 133.5Z" fill="#935C44"/>
<g opacity="0.3">
<g opacity="0.3">
<g opacity="0.3">
<path opacity="0.3" d="M68.5003 133.5C68.5003 133.5 47.5003 89.3 90.5003 82.4C133.5 75.5 201.6 164.4 230.8 128.3C260 92.2 241.9 45.2 223.9 53.4C205.8 61.6 218.3 99.9 210 111.9C195.6 132.9 112.8 52.2 73.3003 81.9C33.8003 111.6 87.7003 168.4 87.7003 168.4L68.5003 133.5Z" fill="#935C44"/>
</g>
</g>
</g>
<path d="M38.8003 170.3C38.8003 170.3 -10.9997 136 2.20027 98.5C15.4003 61.1 40.6003 45.8 53.0003 56.9C65.4003 68 56.7003 94.4 41.6003 104.1C26.5003 113.8 27.8003 129.1 30.6003 141.6C33.5003 154.2 38.8003 170.3 38.8003 170.3Z" fill="#935C44"/>
<path d="M49.8007 63.6C43.6007 62 45.3007 59.7 40.8007 42.4C36.1007 24.8 37.0007 7.49999 41.2007 6.19999C45.1007 4.99999 43.8007 42.8 47.7007 41.9C47.7007 41.9 44.4007 2.39999 49.7007 3.39999C57.5007 4.99999 50.4007 35.1 54.0007 38C54.0007 38 56.5007 -0.50001 62.4007 3.69999C68.3007 7.89999 59.4007 29 59.8007 34.2C60.2007 39.4 61.1007 45.7 61.1007 45.7C61.1007 45.7 65.4007 34 65.6007 27.2C65.8007 20.4 66.3007 14.1 69.7007 14.3C74.0007 14.5 73.6007 22.1 72.7007 31.1C71.8007 40.1 63.9007 54.9 59.8007 58.9C55.7007 63 52.9007 64.4 49.8007 63.6Z" fill="#FFD6A1"/>
<path opacity="0.2" d="M49.8007 63.6C43.6007 62 45.3007 59.7 40.8007 42.4C36.1007 24.8 37.0007 7.49999 41.2007 6.19999C45.1007 4.99999 43.8007 42.8 47.7007 41.9C47.7007 41.9 44.4007 2.39999 49.7007 3.39999C57.5007 4.99999 50.4007 35.1 54.0007 38C54.0007 38 56.5007 -0.50001 62.4007 3.69999C68.3007 7.89999 59.4007 29 59.8007 34.2C60.2007 39.4 61.1007 45.7 61.1007 45.7C61.1007 45.7 65.4007 34 65.6007 27.2C65.8007 20.4 66.3007 14.1 69.7007 14.3C74.0007 14.5 73.6007 22.1 72.7007 31.1C71.8007 40.1 63.9007 54.9 59.8007 58.9C55.7007 63 52.9007 64.4 49.8007 63.6Z" fill="#FFD6A1"/>
<path d="M90.5 139.3C90.5 139.3 90.5 50.1 158.2 42C174.6 40 174 66.4 154.5 76C105.1 100.4 90.5 139.3 90.5 139.3Z" fill="#935C44"/>
<path d="M160.8 57.9C167.2 58.7 166.4 55.9 176.9 41.5C187.6 26.8 199.6 18.9 195.8 16.6C189.3 12.6 174 40.8 170.6 38.5C170.6 34.2 193.7 6.89999 189.3 6.99999C179.4 7.29999 170.6 31.3 166.2 32.7C158.3 32.3 184.1 4.59999 178.2 0.599995C172.2 -3.50001 163.5 20 161.2 24.7C159 29.4 156.7 37.4 156.7 37.4C156.7 37.4 157 24.9 159.3 18.5C161.6 12.1 163.4 6.09999 160.2 4.99999C156.2 3.59999 153.7 10.8 151.3 19.5C148.9 28.2 150.8 44.9 153.2 50.1C155.5 55.2 157.6 57.5 160.8 57.9Z" fill="#FFD6A1"/>
<path opacity="0.2" d="M160.8 57.9C167.2 58.7 166.4 55.9 176.9 41.5C187.6 26.8 199.6 18.9 195.8 16.6C189.3 12.6 174 40.8 170.6 38.5C170.6 34.2 193.7 6.89999 189.3 6.99999C179.4 7.29999 170.6 31.3 166.2 32.7C158.3 32.3 184.1 4.59999 178.2 0.599995C172.2 -3.50001 163.5 20 161.2 24.7C159 29.4 156.7 37.4 156.7 37.4C156.7 37.4 157 24.9 159.3 18.5C161.6 12.1 163.4 6.09999 160.2 4.99999C156.2 3.59999 153.7 10.8 151.3 19.5C148.9 28.2 150.8 44.9 153.2 50.1C155.5 55.2 157.6 57.5 160.8 57.9Z" fill="#FFD6A1"/>
<path d="M94.5003 269.1C94.5003 269.1 28.5003 268 26.9003 197.3C26.2003 166.2 46.5003 130.5 94.5003 128.3C121.2 127.1 134.8 142.7 139.9 169.5C145 196.3 99.8003 232.6 98.5003 243.1C97.2003 253.6 94.5003 269.1 94.5003 269.1Z" fill="#935C44"/>
<path opacity="0.3" d="M94.5003 269.1C94.5003 269.1 28.5003 268 26.9003 197.3C26.2003 166.2 46.5003 130.5 94.5003 128.3C121.2 127.1 134.8 142.7 139.9 169.5C145 196.3 99.8003 232.6 98.5003 243.1C97.2003 253.6 94.5003 269.1 94.5003 269.1Z" fill="#935C44"/>
<path d="M73.8003 360.1C73.8003 360.1 52.3003 353.4 46.0003 356.8C39.7003 360.2 37.0003 369 40.2003 368.6C43.4003 368.2 48.8003 362.9 53.9003 362.8C59.0003 362.7 74.4003 363.9 74.4003 363.9C74.4003 363.9 53.3003 370 48.2003 379.7C43.1003 389.4 47.2003 391.4 49.8003 391.1C52.3003 390.8 55.2003 383.3 56.7003 380.5C58.3003 377.7 79.1003 365.2 79.1003 365.2C79.1003 365.2 67.8003 381.3 69.9003 384.8C72.0003 388.4 70.1003 393.5 74.6003 392.9C79.0003 392.3 78.5003 388.2 78.1003 385.6C77.8003 383.1 76.3003 382 76.4003 380.4C76.5003 378.8 81.8003 365.8 84.3003 365.4C86.8003 365.1 98.5003 368 100.2 370.9C101.9 373.9 105.2 374.4 105.2 369.9C105.2 365.4 103.8 362 100.5 361.8C97.3003 361.6 86.7003 362.4 85.1003 362.3C83.4003 362.3 73.8003 360.1 73.8003 360.1Z" fill="#FFD6A1"/>
<path d="M68.1003 261.6C68.1003 261.6 93.4003 295.9 92.6003 326.5C91.9003 352.4 88.9003 363.3 80.3003 363.3C71.7003 363.3 61.9003 357.2 68.0003 329C74.2003 300.8 68.1003 261.6 68.1003 261.6Z" fill="#935C44"/>
<path opacity="0.3" d="M69.8006 318.8C75.7006 324.5 83.3006 329.4 92.5006 330.4C92.5006 329.2 92.6006 327.9 92.6006 326.6C93.4006 296 68.1006 261.7 68.1006 261.7C68.1006 261.7 72.9006 292.2 69.8006 318.8Z" fill="#935C44"/>
<path d="M237.7 211.6C237.7 211.6 226.3 202.6 222.3 190.8C218.2 179 206.6 167.2 211 162.7C215.4 158.2 229.2 192.5 230.5 188.5C231.8 184.5 224.2 160.2 226.2 154.6C227.5 150.7 230.1 149.1 233.5 156.3C236.8 163.5 237.8 191.7 237.8 191.7C237.8 191.7 244.8 162.3 248.8 159.5C252.8 156.7 253.9 162.3 253.2 169.7C252.5 177.1 243.6 194.6 243.6 194.6C243.6 194.6 250.1 191.2 255 190.2C259.9 189.1 268.6 190.2 271.2 192.8C273.8 195.4 275.4 199.4 272.5 199.4C269.6 199.4 259.7 195.3 251.2 197.7C242.6 200.2 237.7 211.6 237.7 211.6Z" fill="#FFD6A1"/>
<path d="M146 258C146 258 195.5 264.6 228.8 237C257.5 213.2 231.9 185.6 214.5 208.9C207.9 217.8 186.7 238.1 167.1 241C147.5 244 136.2 251.6 136.2 251.6L146 258Z" fill="#935C44"/>
<path opacity="0.3" d="M214.501 208.9C207.901 217.8 186.701 238.1 167.101 241C158.601 242.3 151.701 244.4 146.601 246.5L147.501 258.1C154.701 258.8 188.801 261.2 217.301 245C221.501 230.6 218.001 217.3 214.501 208.9Z" fill="#935C44"/>
<path d="M170.701 238.9C170.701 238.9 185.101 226 193.001 240.3C200.901 254.6 191.601 267.6 184.601 269.1C177.601 270.6 175.401 269.2 171.101 267.8C166.801 266.4 164.101 256 164.101 256L170.701 238.9Z" fill="#FFD6A1"/>
<path d="M164.2 256L168 246C172.7 243.1 180.4 239.8 186.5 244C191.4 247.3 194 252.1 195.5 256.1C193.9 263.1 188.8 268.2 184.6 269.1C177.6 270.6 175.4 269.2 171.1 267.8C166.8 266.3 164.2 256 164.2 256Z" fill="#FFC2BD"/>
<path opacity="0.2" d="M164.2 256L168 246C172.7 243.1 180.4 239.8 186.5 244C191.4 247.3 194 252.1 195.5 256.1C195.3 257 195 257.9 194.7 258.7C192.3 254.9 188.6 251.4 182.7 250.3C172.2 248.3 168.8 258.2 167.7 264.6C165.5 261.1 164.2 256 164.2 256Z" fill="#FFC2BD"/>
<g opacity="0.3">
<path opacity="0.3" d="M170.701 238.9C170.701 238.9 185.101 226 193.001 240.3C200.901 254.6 191.601 267.6 184.601 269.1C177.601 270.6 175.401 269.2 171.101 267.8C166.801 266.4 164.101 256 164.101 256L170.701 238.9Z" fill="#FFD6A1"/>
<path opacity="0.3" d="M164.2 256L168 246C172.7 243.1 180.4 239.8 186.5 244C191.4 247.3 194 252.1 195.5 256.1C193.9 263.1 188.8 268.2 184.6 269.1C177.6 270.6 175.4 269.2 171.1 267.8C166.8 266.3 164.2 256 164.2 256Z" fill="#FFC2BD"/>
<path opacity="0.2" d="M164.2 256L168 246C172.7 243.1 180.4 239.8 186.5 244C191.4 247.3 194 252.1 195.5 256.1C195.3 257 195 257.9 194.7 258.7C192.3 254.9 188.6 251.4 182.7 250.3C172.2 248.3 168.8 258.2 167.7 264.6C165.5 261.1 164.2 256 164.2 256Z" fill="#FFC2BD"/>
</g>
<path d="M181.1 229.5C181.3 262.9 178 288.8 120.5 289.2C65.4002 289.5 52.9002 262.6 52.7002 229.2C52.5002 195.8 82.5002 168.6 119.7 168.3C156.9 168.1 180.9 196.2 181.1 229.5Z" fill="#935C44"/>
<path d="M100.901 236.2C92.9007 199.1 107.101 179 131.701 200.1C151.201 181.6 168.401 190.9 167.101 241.1L100.901 236.2Z" fill="#FFD6A1"/>
<path d="M161 217.5C159.2 227.6 152.5 233.8 145.7 232.6C138.9 231.4 134.7 223.3 136.4 213.2C138.2 203.1 145.1 195.9 151.9 197C158.7 198.2 162.8 207.4 161 217.5Z" fill="white"/>
<path d="M139.3 217.1C138.2 224.2 141.3 229.7 146 230.5C150.7 231.2 155.3 226.8 156.4 219.8C157.5 212.7 154.5 206.4 149.8 205.7C145.1 204.9 140.4 210.1 139.3 217.1Z" fill="#472806"/>
<path d="M148.1 211.1C147.5 215.2 149.3 218.4 152 218.8C154.7 219.2 157.4 216.7 158 212.6C158.6 208.5 156.9 204.9 154.2 204.5C151.4 204.1 148.7 207.1 148.1 211.1Z" fill="white"/>
<path d="M129.801 213.5C131.101 223.7 126.601 231.6 119.701 232.5C112.901 233.4 106.401 226.9 105.101 216.8C103.801 206.6 108.201 197.7 115.001 196.8C121.801 195.8 128.401 203.3 129.801 213.5Z" fill="white"/>
<path d="M125.7 216.3C126.6 223.4 123.4 228.9 118.7 229.5C113.9 230.1 109.4 225.6 108.5 218.6C107.6 211.5 110.7 205.3 115.4 204.7C120.1 204.1 124.8 209.2 125.7 216.3Z" fill="#472806"/>
<path d="M127.3 213.5C127.8 217.2 126.1 220 123.7 220.4C121.2 220.7 118.9 218.4 118.4 214.7C117.9 211 119.5 207.8 122 207.5C124.4 207.1 126.8 209.8 127.3 213.5Z" fill="white"/>
<path d="M186.5 244C187.5 237.5 182.7 231.5 176.1 231C170.8 230.6 164.4 231.2 156.8 232.5C151.8 233.4 137.4 233 131.9 233.1C127.5 233.1 116 233.1 111.9 232.4C81.6001 227.4 65.2001 231.2 79.0001 264.9C89.9001 291.4 126.3 291.4 128.1 291.4C166.4 291.4 182.7 270.3 186.5 244Z" fill="#FFD6A1"/>
<path d="M134.4 244.7C134.4 244.7 128.4 235.2 123.5 237.2C118.6 239.3 134.4 244.7 134.4 244.7Z" fill="#603526"/>
<path d="M149.8 237.5C154.7 239.5 139 245.1 139 245.1C139 245.1 144.9 235.5 149.8 237.5Z" fill="#603526"/>
<path d="M115.3 243C115.3 243 108.7 237.5 114.4 233.9C120.1 230.3 132 235.6 132 235.6C132 235.6 142.3 231.7 148.3 234.3C154.3 236.8 147.5 244.1 147.5 244.1C147.5 244.1 157.7 237.9 153.6 234.3C149.5 230.6 131.9 233.2 131.9 233.2C131.9 233.2 111 229.2 109.4 234.6C107.9 239.8 115.3 243 115.3 243Z" fill="#FFD6A1"/>
<path opacity="0.2" d="M119.901 243C119.901 243 113.301 237.5 119.001 233.9C124.701 230.3 136.601 235.6 136.601 235.6C136.601 235.6 146.901 231.7 152.901 234.3C158.901 236.8 152.101 244.1 152.101 244.1C152.101 244.1 162.301 237.9 158.201 234.3C154.101 230.6 136.501 233.2 136.501 233.2C136.501 233.2 115.601 229.2 114.001 234.6C112.501 239.8 119.901 243 119.901 243Z" fill="#603526"/>
<path d="M87.9001 188C87.9001 188 92.4001 180.9 96.3001 179.7C100.2 178.5 103.7 179.1 102.8 176.8C101.9 174.5 98.1001 167.3 93.2001 169.9C88.3001 172.5 84.4001 178.2 84.6001 181.5C84.8001 184.9 87.9001 188 87.9001 188Z" fill="#472806"/>
<path d="M166.701 188.9C166.701 188.9 165.501 180.6 162.401 177.9C159.301 175.2 155.901 174.4 157.601 172.6C159.301 170.8 165.801 165.8 169.201 170.2C172.601 174.6 173.901 181.4 172.401 184.3C170.801 187.3 166.701 188.9 166.701 188.9Z" fill="#472806"/>
<path d="M173.001 255C149.501 294.2 108.101 295.9 87.5006 246.9C85.2006 247.6 82.7006 247 80.1006 245.7C86.7006 247.1 89.8006 244.5 91.9006 240.8C91.4006 242.3 91.3006 243.6 88.5006 245.9C101.101 278.5 155.501 284.6 171.701 254.7C168.901 252.5 168.301 250.1 168.201 248C170.201 252.9 174.201 255.8 181.901 255C179.501 256.1 176.701 256.7 173.001 255Z" fill="#935C44"/>
<path d="M138.001 282.6C137.501 280.4 134.401 277.4 132.201 277.1C129.001 276.7 126.901 277.7 126.901 277.7C126.901 277.7 125.401 275.5 120.701 275C116.601 274.6 114.801 276.2 112.301 277.9C120.401 283.2 129.301 284.6 138.001 282.6Z" fill="#FFC2BD"/>
<path d="M40.0999 241.7C28.0999 250.6 34.3999 265.9 41.2999 270.3C48.1999 274.7 50.7999 274.3 55.6999 275C60.2999 275.6 65.3999 268.8 65.9999 268C65.9999 267.6 65.8999 267.1 65.8999 266.6L65.3999 263C64.5999 258.1 62.6999 251.3 58.3999 245.7C56.0999 242.7 53.1999 240.8 50.2999 239.7C47.0999 238.7 43.6999 239 40.0999 241.7Z" fill="#FFD6A1"/>
<path d="M45.9003 247.8C40.0003 248.6 35.9003 251.6 33.4003 254.3C33.3003 261.1 37.2003 267.6 41.3003 270.3C48.2003 274.7 50.8003 274.3 55.7003 275C60.3003 275.6 65.4003 268.8 66.0003 268C66.0003 267.6 65.9003 267.1 65.9003 266.6L65.4003 263C65.1003 261.2 64.6003 259.1 64.0003 256.9C59.8003 252.4 53.0003 246.9 45.9003 247.8Z" fill="#FFC2BD"/>
<path opacity="0.2" d="M45.9004 247.8C40.0004 248.6 35.9004 251.6 33.4004 254.3C33.4004 255.2 33.4004 256.1 33.5004 256.9C37.0004 254.6 41.8004 253.3 48.2004 254.9C59.6004 257.8 60.6004 267.7 60.1004 273.8C63.1004 271.9 65.6004 268.6 66.0004 268C66.0004 267.6 65.9004 267.1 65.9004 266.6L65.4004 263C65.1004 261.2 64.6004 259.1 64.0004 256.9C59.8004 252.4 53.0004 246.9 45.9004 247.8Z" fill="#FFC2BD"/>
</g>
<defs>
<clipPath id="clip0">
<rect width="273.9" height="392.9" fill="white"/>
</clipPath>
</defs>
</svg>
