<svg width="144" height="148" viewBox="0 0 144 148" fill="none" xmlns="http://www.w3.org/2000/svg">
<path d="M102.316 130.939L93.6665 134.815C123.152 121.673 135.339 84.6617 120.849 52.0875C115.57 40.2373 107.539 30.6335 97.9349 23.8379C90.4091 18.4463 81.9286 14.8519 73.2235 13.2232C69.6852 12.5492 66.147 12.2684 62.6088 12.2684C59.3514 12.2684 56.094 12.6054 52.8927 13.2232C48.9613 13.9533 45.03 15.1889 41.2109 16.8737L49.8599 12.9985C53.679 11.3137 57.5542 10.0781 61.5417 9.34797C64.7429 8.73019 68.0004 8.39321 71.2578 8.39321C74.796 8.33705 78.3904 8.67403 81.8725 9.34797C90.6338 10.9205 99.0581 14.5711 106.584 19.9627C116.131 26.7583 124.219 36.3621 129.498 48.2123C143.988 80.7864 131.801 117.797 102.316 130.939Z" fill="#806B0F"/>
<path d="M102.316 130.939L93.6665 134.815C123.152 121.673 135.339 84.6617 120.849 52.0875C115.57 40.2373 107.539 30.6335 97.9349 23.8379C90.4091 18.4463 81.9286 14.8519 73.2235 13.2232C69.6852 12.5492 66.147 12.2684 62.6088 12.2684C59.3514 12.2684 56.094 12.6054 52.8927 13.2232C48.9613 13.9533 45.03 15.1889 41.2109 16.8737L49.8599 12.9985C53.679 11.3137 57.5542 10.0781 61.5417 9.34797C64.7429 8.73019 68.0004 8.39321 71.2578 8.39321C74.796 8.33705 78.3904 8.67403 81.8725 9.34797C90.6338 10.9205 99.0581 14.5711 106.584 19.9627C116.131 26.7583 124.219 36.3621 129.498 48.2123C143.988 80.7864 131.801 117.797 102.316 130.939Z" fill="#806B0F"/>
<path d="M102.316 130.939L93.6665 134.815C123.152 121.673 135.339 84.6617 120.849 52.0875C115.57 40.2373 107.539 30.6335 97.9349 23.8379C90.4091 18.4463 81.9286 14.8519 73.2235 13.2232C69.6852 12.5492 66.147 12.2684 62.6088 12.2684C59.3514 12.2684 56.094 12.6054 52.8927 13.2232C48.9613 13.9533 45.03 15.1889 41.2109 16.8737L49.8599 12.9985C53.679 11.3137 57.5542 10.0781 61.5417 9.34797C64.7429 8.73019 68.0004 8.39321 71.2578 8.39321C74.796 8.33705 78.3904 8.67403 81.8725 9.34797C90.6338 10.9205 99.0581 14.5711 106.584 19.9627C116.131 26.7583 124.219 36.3621 129.498 48.2123C143.988 80.7864 131.801 117.797 102.316 130.939Z" fill="#806B0F"/>
<path d="M102.316 130.939L93.6665 134.815C123.152 121.673 135.339 84.6617 120.849 52.0875C115.57 40.2373 107.539 30.6335 97.9349 23.8379C90.4091 18.4463 81.9286 14.8519 73.2235 13.2232C69.6852 12.5492 66.147 12.2684 62.6088 12.2684C59.3514 12.2684 56.094 12.6054 52.8927 13.2232C48.9613 13.9533 45.03 15.1889 41.2109 16.8737L49.8599 12.9985C53.679 11.3137 57.5542 10.0781 61.5417 9.34797C64.7429 8.73019 68.0004 8.39321 71.2578 8.39321C74.796 8.33705 78.3904 8.67403 81.8725 9.34797C90.6338 10.9205 99.0581 14.5711 106.584 19.9627C116.131 26.7583 124.219 36.3621 129.498 48.2123C143.988 80.7864 131.801 117.797 102.316 130.939Z" fill="#806B0F"/>
<path d="M102.316 130.939L93.6665 134.815C123.152 121.673 135.339 84.6617 120.849 52.0875C115.57 40.2373 107.539 30.6335 97.9349 23.8379C90.4091 18.4463 81.9286 14.8519 73.2235 13.2232C69.6852 12.5492 66.147 12.2684 62.6088 12.2684C59.3514 12.2684 56.094 12.6054 52.8927 13.2232C48.9613 13.9533 45.03 15.1889 41.2109 16.8737L49.8599 12.9985C53.679 11.3137 57.5542 10.0781 61.5417 9.34797C64.7429 8.73019 68.0004 8.39321 71.2578 8.39321C74.796 8.33705 78.3904 8.67403 81.8725 9.34797C90.6338 10.9205 99.0581 14.5711 106.584 19.9627C116.131 26.7583 124.219 36.3621 129.498 48.2123C143.988 80.7864 131.801 117.797 102.316 130.939Z" fill="#806B0F"/>
<path d="M96.4747 68.4869L87.7695 72.3621L97.9349 23.8378L106.584 19.9626L96.4747 68.4869Z" fill="#775802"/>
<path d="M91.3823 57.0973L82.7119 60.9575L87.7827 72.347L96.4531 68.4868L91.3823 57.0973Z" fill="#775F1B"/>
<path d="M96.4692 68.4916L87.7988 72.3517L90.22 77.79L98.8904 73.9298L96.4692 68.4916Z" fill="#755702"/>
<path d="M74.1217 62.8145L65.4727 66.6897C74.2901 61.5789 77.716 49.7287 73.0546 39.2263C72.7738 38.6647 72.5491 38.1031 72.2683 37.5414L80.9173 33.6662C81.1981 34.2279 81.4789 34.7333 81.7036 35.3511C86.365 45.7973 82.9391 57.6475 74.1217 62.8145Z" fill="#7B621C"/>
<path d="M76.1441 36.8675L67.4951 40.7427C68.843 39.4509 70.4717 38.3277 72.2127 37.5414L80.8617 33.6662C79.0646 34.4525 77.492 35.5196 76.1441 36.8675Z" fill="#817026"/>
<path d="M76.1436 36.8675L67.4385 40.6865L73.2232 13.2232L81.8722 9.34796L76.1436 36.8675Z" fill="#79611B"/>
<path d="M102.316 130.939L93.6665 134.815C123.152 121.673 135.339 84.6617 120.849 52.0875C115.57 40.2373 107.539 30.6335 97.9349 23.8379C90.4091 18.4463 81.9286 14.8519 73.2235 13.2232C69.6852 12.5492 66.147 12.2684 62.6088 12.2684C59.3514 12.2684 56.094 12.6054 52.8927 13.2232C48.9613 13.9533 45.03 15.1889 41.2109 16.8737L49.8599 12.9985C53.679 11.3137 57.5542 10.0781 61.5417 9.34797C64.7429 8.73019 68.0004 8.39321 71.2578 8.39321C74.796 8.33705 78.3904 8.67403 81.8725 9.34797C90.6338 10.9205 99.0581 14.5711 106.584 19.9627C116.131 26.7583 124.219 36.3621 129.498 48.2123C143.988 80.7864 131.801 117.797 102.316 130.939Z" fill="#806B0F"/>
<path d="M71.7066 57.9284L63.0576 61.8036L67.4383 40.6865L76.1434 36.8675L71.7066 57.9284Z" fill="#7F6E25"/>
<path d="M76.144 36.8675L71.7633 57.9845C68.9552 50.178 70.8647 41.9221 76.144 36.8675Z" fill="#EFC61B"/>
<path d="M71.7063 57.9284L63.0573 61.8036C60.3054 54.0532 62.2149 45.7411 67.438 40.6865L76.087 36.8113C70.8639 41.9221 68.9544 50.178 71.7063 57.9284Z" fill="#806B0F"/>
<path d="M91.0826 101.566L82.4336 105.442C85.1855 103.925 87.3759 101.735 89.0607 99.1515C92.8236 93.2545 93.5537 85.1671 90.2963 77.8098L98.9453 73.9346C102.259 81.2919 101.529 89.3793 97.7097 95.2763C96.0249 97.8598 93.7784 100.05 91.0826 101.566Z" fill="#795A02"/>
<path d="M90.0152 99.2638L81.3662 103.139L87.7687 72.3621L96.4739 68.4869L90.0152 99.2638Z" fill="#7E690E"/>
<path d="M90.0269 99.2355L81.3564 103.096L82.3843 105.404L91.0547 101.544L90.0269 99.2355Z" fill="#7C670E"/>
<path d="M96.4743 68.4869L98.8893 73.9346C102.203 81.2919 101.473 89.3793 97.6537 95.2763C96.025 97.8598 93.7785 99.9939 91.0265 101.566L90.0156 99.2638L96.4743 68.4869Z" fill="#EFC61B"/>
<path d="M82.8501 83.0933L74.1797 86.9534L81.3747 103.114L90.0451 99.2541L82.8501 83.0933Z" fill="#7D6C25"/>
<path d="M91.3636 57.0859L96.4183 68.4869L90.0158 99.2638L82.827 83.1453C79.4011 75.451 80.6928 66.9705 85.5228 61.4666C87.1515 59.6132 89.1172 58.153 91.3636 57.0859Z" fill="#F1D047"/>
<path d="M82.8266 83.1452L74.1776 87.0204C70.7517 79.3262 72.0434 70.8457 76.8734 65.3418C78.4459 63.5446 80.4116 62.0282 82.7142 61.0173L91.3632 57.1421C89.0606 58.153 87.0949 59.6694 85.5224 61.4666C80.7486 66.9143 79.4007 75.3948 82.8266 83.1452Z" fill="#817026"/>
<path d="M74.1216 62.8145L65.4726 66.6897C64.8548 65.6788 64.237 64.6679 63.7316 63.5446C63.5069 62.983 63.2823 62.4214 63.0576 61.8598L71.7066 57.9846C71.9313 58.5462 72.1559 59.1078 72.3806 59.6694C72.886 60.7365 73.4476 61.8036 74.1216 62.8145Z" fill="#817026"/>
<path d="M102.316 130.939L93.6665 134.815C123.152 121.673 135.339 84.6617 120.849 52.0875C115.57 40.2373 107.539 30.6335 97.9349 23.8379C90.4091 18.4463 81.9286 14.8519 73.2235 13.2232C69.6852 12.5492 66.147 12.2684 62.6088 12.2684C59.3514 12.2684 56.094 12.6054 52.8927 13.2232C48.9613 13.9533 45.03 15.1889 41.2109 16.8737L49.8599 12.9985C53.679 11.3137 57.5542 10.0781 61.5417 9.34797C64.7429 8.73019 68.0004 8.39321 71.2578 8.39321C74.796 8.33705 78.3904 8.67403 81.8725 9.34797C90.6338 10.9205 99.0581 14.5711 106.584 19.9627C116.131 26.7583 124.219 36.3621 129.498 48.2123C143.988 80.7864 131.801 117.797 102.316 130.939Z" fill="#806B0F"/>
<path d="M102.316 130.939L93.6665 134.815C123.152 121.673 135.339 84.6617 120.849 52.0875C115.57 40.2373 107.539 30.6335 97.9349 23.8379C90.4091 18.4463 81.9286 14.8519 73.2235 13.2232C69.6852 12.5492 66.147 12.2684 62.6088 12.2684C59.3514 12.2684 56.094 12.6054 52.8927 13.2232C48.9613 13.9533 45.03 15.1889 41.2109 16.8737L49.8599 12.9985C53.679 11.3137 57.5542 10.0781 61.5417 9.34797C64.7429 8.73019 68.0004 8.39321 71.2578 8.39321C74.796 8.33705 78.3904 8.67403 81.8725 9.34797C90.6338 10.9205 99.0581 14.5711 106.584 19.9627C116.131 26.7583 124.219 36.3621 129.498 48.2123C143.988 80.7864 131.801 117.797 102.316 130.939Z" fill="#806B0F"/>
<path d="M70.5278 63.645L61.8574 67.5051L68.8697 83.2555L77.5401 79.3954L70.5278 63.645Z" fill="#775F1B"/>
<path d="M70.5274 63.6569L61.8223 67.5321L63.0578 61.8035L71.7068 57.9283L70.5274 63.6569Z" fill="#79611B"/>
<path d="M69.2837 60.968L60.6133 64.8281L61.8239 67.5472L70.4943 63.6871L69.2837 60.968Z" fill="#755702"/>
<path d="M62.1031 52.0875L53.4541 55.9065L62.5524 12.2684L71.2576 8.44934L62.1031 52.0875Z" fill="#775802"/>
<path d="M69.3475 60.9611L60.6985 64.8363C59.0137 61.1296 56.4864 58.0968 53.5098 55.9627L62.1588 52.0875C65.1354 54.2216 67.6627 57.2544 69.3475 60.9611Z" fill="#795A02"/>
<path d="M62.1022 52.0875L53.4532 55.9627C50.8136 54.0532 47.7808 52.8737 44.6357 52.4806L53.2847 48.6054C56.4298 48.9424 59.4626 50.178 62.1022 52.0875Z" fill="#7B621C"/>
<path d="M57.3853 74.6085L48.7363 78.4838L53.454 55.9065L62.103 52.0875L57.3853 74.6085Z" fill="#7E690E"/>
<path d="M82.4332 135.545L73.7842 139.42L81.3661 103.139L90.0151 99.2639L82.4332 135.545Z" fill="#775802"/>
<path d="M87.7125 103.027L79.0635 106.902C78.7827 105.779 78.3896 104.655 77.8841 103.532C73.9527 94.7708 65.1914 89.8847 56.9355 91.2326L65.5845 87.3574C73.8404 85.9534 82.6579 90.8956 86.5331 99.657C87.0385 100.78 87.4317 101.903 87.7125 103.027Z" fill="#7B621C"/>
<path d="M77.5473 79.4385L68.8983 83.3137C65.9217 84.3246 62.8328 84.5492 59.8 84.0438C59.3507 83.9876 58.9014 83.8753 58.4521 83.763L67.1011 79.8878C67.5504 80.0001 67.9997 80.0563 68.449 80.1686C71.4818 80.6179 74.5707 80.4494 77.5473 79.4385Z" fill="#817026"/>
<path d="M65.585 87.3574L56.8799 91.2326L58.4524 83.763L67.1576 79.8878L65.585 87.3574Z" fill="#79611B"/>
<path d="M67.1573 79.8878L58.4521 83.763L61.8219 67.5321L70.527 63.6569L67.1573 79.8878Z" fill="#7F6E25"/>
<path d="M67.1571 79.8878L58.5081 83.763C54.9698 82.9206 51.6001 81.1234 48.792 78.5399L57.441 74.6647C60.2491 77.2482 63.6188 79.0454 67.1571 79.8878Z" fill="#806B0F"/>
<path d="M65.5848 87.3574L56.9358 91.2326C55.5879 91.4573 54.24 91.8504 52.9482 92.412L61.5972 88.5368C62.889 87.9752 64.2369 87.5821 65.5848 87.3574Z" fill="#795A02"/>
<path d="M64.2364 93.8722L55.5312 97.6913L56.8791 91.2326L65.5843 87.3574L64.2364 93.8722Z" fill="#7F6E25"/>
<path d="M64.2369 93.8723L55.5879 97.7475C54.8578 96.6242 54.1838 95.4448 53.6222 94.1531C53.3414 93.5915 53.1167 93.0299 52.9482 92.4121L61.5972 88.5369C61.8219 89.0985 62.0465 89.6601 62.2712 90.2779C62.8328 91.5696 63.4506 92.749 64.2369 93.8723Z" fill="#806B0F"/>
<path d="M57.3853 74.6086L48.7363 78.4838C46.4337 76.3496 44.468 73.71 43.1201 70.6211L51.7691 66.7458C53.1732 69.8348 55.0827 72.5306 57.3853 74.6086Z" fill="#817026"/>
<path d="M50.253 63.2638L41.5479 67.139L44.6368 52.4244L53.2858 48.6054L50.253 63.2638Z" fill="#7F6E25"/>
<path d="M50.2456 63.2858L41.5752 67.1459L43.1284 70.6346L51.7988 66.7745L50.2456 63.2858Z" fill="#7D6C25"/>
<path d="M46.8824 124.986L38.2334 128.861L48.7358 78.4838L57.3848 74.6086L46.8824 124.986Z" fill="#775802"/>
<path d="M50.2525 63.2638L51.8251 66.7459C53.2291 69.8348 55.1387 72.4744 57.4413 74.6086L46.939 124.93C44.0747 123.021 41.3227 120.83 38.7393 118.415L50.2525 63.2638Z" fill="#E5B733"/>
<path d="M53.2852 48.6054C56.3741 48.9985 59.4069 50.178 62.1027 52.0875L57.3851 74.6647C55.0824 72.5306 53.1167 69.8909 51.7688 66.802L50.1963 63.3199L53.2852 48.6054Z" fill="#F1D047"/>
<path d="M69.348 60.9611C67.6631 57.2544 65.1358 54.2217 62.1592 52.0875L71.2575 8.44937C74.7957 8.3932 78.3901 8.73018 81.8722 9.40413L76.1436 36.8675C70.8643 41.9221 69.011 50.178 71.7629 57.9845L70.5835 63.7131L69.348 60.9611Z" fill="#E1A703"/>
<path d="M61.4849 9.4041C64.6861 8.78631 67.9435 8.44934 71.2009 8.44934L62.1026 52.0875C59.463 50.1779 56.4302 48.9985 53.2852 48.6054L61.4849 9.4041Z" fill="#E5B733"/>
<path d="M53.2847 48.6054L44.6357 52.4244L52.8354 13.2793L61.4844 9.40408L53.2847 48.6054Z" fill="#79611B"/>
<path d="M70.5265 63.6569L77.5468 79.4385C74.5702 80.4495 71.4812 80.6741 68.4485 80.1686C67.9992 80.1125 67.5499 80.0002 67.1006 79.8878L70.5265 63.6569Z" fill="#F1D047"/>
<path d="M53.2859 48.6054L44.6369 52.4806C44.0191 52.4245 43.3451 52.3683 42.7273 52.3683C40.3124 52.3121 37.8974 52.8176 35.5947 53.8285L44.2437 49.9533C46.5464 48.9424 48.9614 48.4931 51.3763 48.4931C52.0503 48.4369 52.6681 48.4931 53.2859 48.6054Z" fill="#795A02"/>
<path d="M87.7123 103.027L79.0633 106.902C70.5266 109.654 60.9228 105.835 55.5312 97.7475L64.1803 93.8723C69.5718 101.96 79.1756 105.779 87.7123 103.027Z" fill="#817026"/>
<path d="M106.583 19.9626C116.131 26.7583 124.218 36.362 129.498 48.2123C143.987 80.7864 131.8 117.797 102.315 130.939C95.9125 133.804 89.1731 135.264 82.4336 135.545L90.0155 99.2639L91.0264 101.566C93.7784 100.05 95.9687 97.8598 97.6536 95.2763C101.416 89.3793 102.147 81.2919 98.8891 73.9346L96.4742 68.4869L106.583 19.9626Z" fill="#E1A703"/>
<path d="M102.315 130.939L93.6656 134.815C87.2631 137.679 80.5237 139.139 73.7842 139.42L82.4332 135.545C89.1727 135.32 95.9121 133.804 102.315 130.939Z" fill="#795A02"/>
<path d="M56.5987 130.378L47.8936 134.253L55.5316 97.6913L64.2368 93.8723L56.5987 130.378Z" fill="#79611B"/>
<path d="M62.2713 90.2779C62.8329 91.5696 63.5069 92.749 64.237 93.8722L56.5989 130.378C53.2292 128.861 50.0279 127.064 46.8828 124.986L57.3852 74.6647C60.1933 77.2482 63.563 79.1016 67.1012 79.8878L65.5287 87.3574C64.1808 87.5821 62.8329 87.9752 61.5412 88.5368C61.7658 89.1546 61.9905 89.7162 62.2713 90.2779Z" fill="#E1A703"/>
<path d="M61.541 88.5368C62.8327 87.9752 64.1806 87.5821 65.5285 87.3574L64.1807 93.8722C63.4505 92.749 62.7766 91.5696 62.215 90.2779C61.9903 89.7162 61.7657 89.1546 61.541 88.5368Z" fill="#EFC61B"/>
<path d="M53.2859 48.6054L44.6369 52.4806C44.0191 52.4245 43.3451 52.3683 42.7273 52.3683C40.3124 52.3121 37.8974 52.8176 35.5947 53.8285L44.2437 49.9533C46.5464 48.9424 48.9614 48.4931 51.3763 48.4931C52.0503 48.4369 52.6681 48.4931 53.2859 48.6054Z" fill="#795A02"/>
<path d="M44.2681 49.8905L35.5977 53.7507L41.5592 67.1411L50.2296 63.2809L44.2681 49.8905Z" fill="#7C670E"/>
<path d="M51.3753 48.437C51.9931 48.437 52.667 48.4931 53.2848 48.5493L50.1959 63.2638L44.2988 49.8972C46.5453 48.8862 48.9603 48.437 51.3753 48.437Z" fill="#EFC61B"/>
<path d="M82.4334 135.545L73.7844 139.42C64.9669 139.757 56.1494 137.96 47.8936 134.253L56.5426 130.378C64.7984 134.084 73.6159 135.882 82.4334 135.545Z" fill="#7B621C"/>
<path d="M81.8717 9.34796C90.633 10.9205 99.0574 14.5711 106.583 19.9626L96.4739 68.4869L91.4193 57.0859C89.1166 58.0969 87.1509 59.6132 85.5784 61.4104C80.7484 66.9143 79.4567 75.3949 82.8826 83.0891L90.0714 99.2077L82.4895 135.489C73.672 135.826 64.8545 134.028 56.5986 130.322L64.2367 93.8161C69.6283 101.903 79.2321 105.723 87.7687 102.971C87.4879 101.847 87.0948 100.724 86.5893 99.6008C82.658 90.8395 73.8966 85.9534 65.6408 87.3013L67.2133 79.8317C67.6626 79.944 68.1119 80.0002 68.5612 80.1125C71.594 80.618 74.6829 80.3933 77.6595 79.3824L70.6392 63.6008L71.8186 57.8722C72.0433 58.4338 72.2679 58.9954 72.4926 59.5571C72.998 60.6803 73.5597 61.7474 74.2336 62.7022C83.0511 57.5914 86.477 45.7411 81.8155 35.2388C81.5347 34.6772 81.3101 34.1155 81.0292 33.5539C79.2321 34.3402 77.6595 35.4634 76.3116 36.7552L81.8717 9.34796Z" fill="#E5B733"/>
<path d="M56.5985 130.378L47.9495 134.253C44.5797 132.737 41.3785 130.939 38.2334 128.861L46.8824 124.986C49.9713 127.064 53.2287 128.861 56.5985 130.378Z" fill="#795A02"/>
<path d="M38.6832 118.471L30.0342 122.29L41.5475 67.139L50.2526 63.2638L38.6832 118.471Z" fill="#79611B"/>
<path d="M46.8829 124.986L38.2339 128.861C35.3696 126.952 32.6176 124.762 30.0342 122.347L38.6832 118.471C41.2666 120.886 44.0186 123.077 46.8829 124.986Z" fill="#7B621C"/>
<path d="M38.6831 118.471L30.0341 122.347C23.4631 116.225 17.9592 108.587 13.9717 99.657C-0.518181 67.0828 11.669 30.0718 41.1543 16.9299L49.8033 13.0547C20.318 26.1966 8.13082 63.2076 22.6207 95.7818C26.6082 104.655 32.1683 112.293 38.6831 118.471Z" fill="#795A02"/>
<path d="M136.574 45.0672C120.175 8.22471 79.7939 -9.63491 46.3773 5.2481C12.9607 20.1311 -0.855223 62.0844 15.5442 98.9268C31.9436 135.769 72.3243 153.629 105.741 138.746C139.214 123.863 152.973 81.9658 136.574 45.0672ZM102.315 130.939C95.9125 133.804 89.173 135.264 82.4335 135.545C73.616 135.882 64.7985 134.084 56.5427 130.378C56.1495 130.209 55.7002 129.985 55.3071 129.816C54.4647 129.423 53.6784 129.03 52.836 128.581C51.2072 127.738 49.5785 126.783 48.006 125.772C47.6129 125.492 47.2197 125.267 46.8266 124.986C43.9623 123.077 41.2104 120.886 38.6269 118.471C32.0559 112.35 26.552 104.712 22.5645 95.7818C8.07459 63.2076 20.2618 26.1966 49.747 13.0547C53.5661 11.3698 57.4413 10.1342 61.4288 9.40411C64.63 8.78633 67.8875 8.44935 71.1449 8.44935C74.6831 8.39319 78.2775 8.73016 81.7596 9.40411C90.5209 10.9767 98.9452 14.6272 106.471 20.0188C116.019 26.8144 124.106 36.4182 129.385 48.2684C143.987 80.7864 131.8 117.797 102.315 130.939Z" fill="#EFC61B"/>
<path d="M80.861 33.6662C81.1418 34.2279 81.4226 34.7333 81.6473 35.3511C86.3088 45.8535 82.8829 57.7037 74.0654 62.8145C73.4476 61.8036 72.8298 60.7926 72.3243 59.6694C72.0997 59.1078 71.875 58.5461 71.6504 57.9845L76.0311 36.8675C77.4913 35.5196 79.0638 34.4525 80.861 33.6662Z" fill="#F1D047"/>
<path d="M62.1034 52.0875C65.1361 54.2216 67.6634 57.2544 69.2922 60.9611L70.4716 63.6569L67.1018 79.8878C63.5636 79.0454 60.1939 77.2482 57.3857 74.6647L62.1034 52.0875Z" fill="#EFC61B"/>
<path d="M65.5857 87.3574C73.8416 85.9534 82.659 90.8956 86.5342 99.657C87.0397 100.78 87.4328 101.903 87.7136 103.027C79.177 105.779 69.5732 101.96 64.1816 93.8722L65.5857 87.3574Z" fill="#F1D047"/>
<path d="M44.2998 49.8971L50.253 63.2637L38.6835 118.471C32.1125 112.35 26.6086 104.712 22.6211 95.7817C8.13123 63.2076 20.3185 26.1966 49.8037 13.0546C53.6227 11.3698 57.4979 10.1342 61.4854 9.40408L53.2857 48.6054C52.668 48.5492 51.994 48.4931 51.3762 48.4931C48.9612 48.4369 46.5463 48.8862 44.2998 49.8971Z" fill="#E1A703"/>
<path d="M105.797 138.746L97.1481 142.621C63.7315 157.504 23.3508 139.701 6.95143 102.802C-9.50413 65.9596 4.25564 24.0063 37.6722 9.12331L46.3212 5.24811C12.9608 20.1311 -0.855134 62.0844 15.5443 98.9269C31.9998 135.826 72.3805 153.629 105.797 138.746Z" fill="#806B0F"/>
</svg>
